<svg width="20" height="20" viewBox="0 0 20 20" fill="none" xmlns="http://www.w3.org/2000/svg">
<path id="Vector" d="M19.7983 9.69723L0.533546 0.0383983C0.455244 -0.00075296 0.365426 -0.00996494 0.280215 0.0107622C0.185642 0.0341419 0.104188 0.0940432 0.0536853 0.17735C0.00318313 0.260657 -0.0122512 0.360581 0.0107621 0.455244L1.99596 8.56645C2.0259 8.68851 2.11572 8.78754 2.23547 8.8267L5.63702 9.99432L2.23778 11.162C2.11802 11.2034 2.0282 11.3001 2.00057 11.4222L0.0107621 19.5449C-0.00996499 19.6301 -0.000752834 19.7199 0.0383984 19.7959C0.128216 19.9779 0.349305 20.0516 0.533546 19.9618L19.7983 10.3582C19.8696 10.3237 19.9272 10.2638 19.9641 10.1947C20.0539 10.0104 19.9802 9.78936 19.7983 9.69723ZM2.28153 17.2373L3.43995 12.5023L10.2384 10.1694C10.2914 10.1509 10.3352 10.1095 10.3536 10.0542C10.3858 9.95748 10.3352 9.85384 10.2384 9.81929L3.43995 7.48865L2.28614 2.77207L16.7491 10.0243L2.28153 17.2373Z" fill="#076EB8"/>
</svg>
